REM GENRE Metal
REM DATE 2006
REM DISCID 2003C403
REM COMMENT "ExactAudioCopy v0.95b4"
PERFORMER "Amesoeurs"
TITLE "Ruines Humaines"
FILE "Amesoeurs - Ruines Humaines (2006).flac" WAVE
  TRACK 01 AUDIO
    TITLE "Bonheur Ampute"
    PERFORMER "Amesoeurs"
    INDEX 01 00:00:00
  TRACK 02 AUDIO
    TITLE "Ruines Humaines"
    PERFORMER "Amesoeurs"
    INDEX 01 04:33:34
  TRACK 03 AUDIO
    TITLE "Faiblesse Des Sens"
    PERFORMER "Amesoeurs"
    INDEX 01 11:02:20
